<svg width="16" height="17" viewBox="0 0 16 17" fill="none" xmlns="http://www.w3.org/2000/svg">
<path d="M9.96047 14.861H6.11001C5.93183 14.861 5.84259 15.0765 5.96859 15.2025L6.7018 15.9357C6.73931 15.9732 6.79018 15.9943 6.84322 15.9943H9.22726C9.2803 15.9943 9.33118 15.9732 9.36868 15.9357L10.1019 15.2025C10.2279 15.0765 10.1387 14.861 9.96047 14.861Z" stroke="#616161" stroke-width="0.7"/>
<path d="M5.82716 13.8223H10.2433C10.3538 13.8223 10.4433 13.7327 10.4433 13.6223V11.5728C10.4433 11.5036 10.4789 11.44 10.5361 11.401C11.2203 10.9334 12.4264 9.65462 12.4264 7.77847C12.4264 5.32318 10.4433 3.34006 8.08246 3.34006C5.7216 3.34006 3.64404 4.85101 3.64404 7.77847C3.64404 9.97931 4.81158 11.0738 5.50089 11.4067C5.57562 11.4428 5.62716 11.5163 5.62716 11.5992V13.6223C5.62716 13.7327 5.71671 13.8223 5.82716 13.8223Z" stroke="#616161" stroke-width="0.7"/>
<line x1="13.4653" y1="7.52457" x2="15.1652" y2="7.52457" stroke="#616161" stroke-width="0.7"/>
<line x1="12.0634" y1="3.68832" x2="13.0077" y2="2.55511" stroke="#616161" stroke-width="0.7"/>
<line y1="-0.35" x2="1.69982" y2="-0.35" transform="matrix(-1 0 0 1 2.69971 7.87457)" stroke="#616161" stroke-width="0.7"/>
<line y1="-0.35" x2="1.47511" y2="-0.35" transform="matrix(-0.640184 -0.768221 -0.768221 0.640184 3.83301 3.91238)" stroke="#616161" stroke-width="0.7"/>
<line x1="8.33828" y1="0.507812" x2="8.33828" y2="2.20763" stroke="#616161" stroke-width="0.7"/>
<path d="M8.17505 5.035L7.60844 10.5122" stroke="#616161" stroke-width="0.7"/>
<path d="M6.47721 6.73727L5.34399 7.87049L6.47721 9.0037" stroke="#616161" stroke-width="0.7"/>
<path d="M9.68783 6.73727L10.821 7.87049L9.68783 9.0037" stroke="#616161" stroke-width="0.7"/>
</svg>
