<svg width="20" height="20" viewBox="0 0 20 20" fill="none" xmlns="http://www.w3.org/2000/svg">
<path d="M10 18C14.4183 18 18 14.4183 18 10C18 5.8344 14.8162 2.4124 10.7493 2.03463C10.3369 1.99632 10 2.33579 10 2.75C10 3.16421 10.3372 3.49546 10.7487 3.54266C13.9859 3.91394 16.5 6.66337 16.5 10C16.5 13.5899 13.5899 16.5 10 16.5C6.66337 16.5 3.91394 13.9859 3.54266 10.7487C3.49546 10.3372 3.16421 10 2.75 10C2.33579 10 1.99632 10.3369 2.03463 10.7493C2.4124 14.8162 5.8344 18 10 18Z" fill="var(--jp-brand-color0)"/>
</svg>
